<svg xmlns="http://www.w3.org/2000/svg" viewBox="0 0 840 294" width="840" height="294" role="img" aria-labelledby="t d" font-family="Geist, ui-sans-serif, -apple-system, sans-serif"><title id="t">Run 005: what the finished detectors read</title><desc id="d">For each detector, the range across seven calm attempts and the value on each of three genuinely stuck attempts. Pressure strain and dysfluency overlap completely; unproductive struggle splits cleanly but never reaches its own threshold.</desc><rect width="840" height="294" fill="#FFFDF7"/><text x="20.0" y="26.0" font-size="15" fill="#171307" text-anchor="start" font-weight="500">Run 005: what the finished detectors read</text><line x1="210.0" y1="46" x2="210.0" y2="218" stroke="#E6DCC2" stroke-width="1"/><text x="210.0" y="262.0" font-size="11" fill="#7D7360" text-anchor="middle" font-weight="400" font-family="'Geist Mono', ui-monospace, Menlo, monospace">0</text><line x1="329.2" y1="46" x2="329.2" y2="218" stroke="#E6DCC2" stroke-width="1"/><text x="329.2" y="262.0" font-size="11" fill="#7D7360" text-anchor="middle" font-weight="400" font-family="'Geist Mono', ui-monospace, Menlo, monospace">0.2</text><line x1="448.4" y1="46" x2="448.4" y2="218" stroke="#E6DCC2" stroke-width="1"/><text x="448.4" y="262.0" font-size="11" fill="#7D7360" text-anchor="middle" font-weight="400" font-family="'Geist Mono', ui-monospace, Menlo, monospace">0.4</text><line x1="567.6" y1="46" x2="567.6" y2="218" stroke="#E6DCC2" stroke-width="1"/><text x="567.6" y="262.0" font-size="11" fill="#7D7360" text-anchor="middle" font-weight="400" font-family="'Geist Mono', ui-monospace, Menlo, monospace">0.6</text><line x1="686.8" y1="46" x2="686.8" y2="218" stroke="#E6DCC2" stroke-width="1"/><text x="686.8" y="262.0" font-size="11" fill="#7D7360" text-anchor="middle" font-weight="400" font-family="'Geist Mono', ui-monospace, Menlo, monospace">0.8</text><line x1="806.0" y1="46" x2="806.0" y2="218" stroke="#E6DCC2" stroke-width="1"/><text x="806.0" y="262.0" font-size="11" fill="#7D7360" text-anchor="middle" font-weight="400" font-family="'Geist Mono', ui-monospace, Menlo, monospace">1</text><line x1="567.6" y1="38" x2="567.6" y2="218" stroke="#5B5340" stroke-width="2" stroke-dasharray="5 4"/><text x="567.6" y="30.0" font-size="11" fill="#5B5340" text-anchor="middle" font-weight="400">fires at 0.6</text><text x="196.0" y="71.0" font-size="13" fill="#171307" text-anchor="end" font-weight="400">Pressure strain</text><rect x="239.8" y="60.0" width="41.7" height="12" rx="4" fill="#2563EB" fill-opacity="0.24"/><line x1="239.8" y1="57.0" x2="239.8" y2="75.0" stroke="#2563EB" stroke-width="2"/><line x1="281.5" y1="57.0" x2="281.5" y2="75.0" stroke="#2563EB" stroke-width="2"/><circle cx="245.8" cy="66.0" r="7" fill="#C2410C" stroke="#FFFDF7" stroke-width="2"/><circle cx="275.6" cy="66.0" r="7" fill="#C2410C" stroke="#FFFDF7" stroke-width="2"/><circle cx="281.5" cy="66.0" r="7" fill="#C2410C" stroke="#FFFDF7" stroke-width="2"/><text x="196.0" y="86.0" font-size="11" fill="#7D7360" text-anchor="end" font-weight="400">7 calm, 3 stuck</text><text x="196.0" y="129.0" font-size="13" fill="#171307" text-anchor="end" font-weight="400">Dysfluency</text><rect x="287.5" y="118.0" width="262.2" height="12" rx="4" fill="#2563EB" fill-opacity="0.24"/><line x1="287.5" y1="115.0" x2="287.5" y2="133.0" stroke="#2563EB" stroke-width="2"/><line x1="549.7" y1="115.0" x2="549.7" y2="133.0" stroke="#2563EB" stroke-width="2"/><circle cx="365.0" cy="124.0" r="7" fill="#C2410C" stroke="#FFFDF7" stroke-width="2"/><circle cx="543.8" cy="124.0" r="7" fill="#C2410C" stroke="#FFFDF7" stroke-width="2"/><circle cx="442.4" cy="124.0" r="7" fill="#C2410C" stroke="#FFFDF7" stroke-width="2"/><text x="196.0" y="144.0" font-size="11" fill="#7D7360" text-anchor="end" font-weight="400">7 calm, 3 stuck</text><text x="196.0" y="187.0" font-size="13" fill="#171307" text-anchor="end" font-weight="400">Unproductive struggle</text><rect x="359.0" y="176.0" width="6.0" height="12" rx="4" fill="#2563EB" fill-opacity="0.24"/><line x1="359.0" y1="173.0" x2="359.0" y2="191.0" stroke="#2563EB" stroke-width="2"/><line x1="359.0" y1="173.0" x2="359.0" y2="191.0" stroke="#2563EB" stroke-width="2"/><circle cx="508.0" cy="182.0" r="7" fill="#C2410C" stroke="#FFFDF7" stroke-width="2"/><circle cx="508.0" cy="182.0" r="7" fill="#C2410C" stroke="#FFFDF7" stroke-width="2"/><circle cx="508.0" cy="182.0" r="7" fill="#C2410C" stroke="#FFFDF7" stroke-width="2"/><text x="196.0" y="202.0" font-size="11" fill="#7D7360" text-anchor="end" font-weight="400">7 calm, 3 stuck</text><text x="508.0" y="282.0" font-size="12" fill="#7D7360" text-anchor="middle" font-weight="400">detector output, 0 to 1</text><text x="20.0" y="282.0" font-size="12" fill="#5B5340" text-anchor="start" font-weight="400">Blue bar: the range across this student's calm attempts. Orange dot: one stuck attempt.</text></svg>